<?xml version="1.0" standalone="no"?>
<!DOCTYPE svg PUBLIC "-//W3C//DTD SVG 20010904//EN"
 "http://www.w3.org/TR/2001/REC-SVG-20010904/DTD/svg10.dtd">
<svg version="1.0" xmlns="http://www.w3.org/2000/svg"
 width="400.000000pt" height="400.000000pt" viewBox="0 0 400.000000 400.000000"
 preserveAspectRatio="xMidYMid meet">
<metadata>
Created by potrace 1.11, written by Peter Selinger 2001-2013
</metadata>
<g transform="translate(0.000000,400.000000) scale(0.100000,-0.100000)"
fill="#000000" stroke="none">
<path d="M1800 3524 l0 -146 -27 7 c-16 3 -225 67 -465 141 l-438 135 -31 -23
c-123 -91 -189 -290 -142 -429 10 -31 17 -61 15 -68 -5 -14 -63 -46 -77 -42
-5 1 -7 -1 -3 -5 4 -3 -21 -28 -55 -54 -74 -57 -228 -215 -277 -285 -19 -28
-38 -51 -42 -53 -4 -2 -8 -9 -8 -16 0 -7 -9 -22 -20 -34 -12 -12 -18 -22 -14
-22 3 0 2 -6 -4 -13 -35 -42 -145 -303 -158 -377 -3 -14 -10 -43 -15 -65 -6
-21 -13 -62 -16 -90 -2 -27 -8 -54 -14 -59 -11 -12 -12 -146 -1 -147 4 -1 904
-2 2000 -3 l1992 -2 0 72 c0 40 -4 75 -9 78 -4 3 -11 29 -14 58 -7 59 -8 65
-31 158 -39 156 -148 391 -224 485 -4 6 -19 26 -32 45 -14 19 -34 43 -44 52
-10 10 -17 18 -14 18 3 0 -30 36 -74 80 -43 44 -81 80 -83 80 -3 0 -13 8 -24
18 -32 29 -63 52 -134 99 -51 34 -67 49 -62 61 59 154 -3 363 -134 460 l-31
23 -258 -80 c-243 -75 -576 -176 -614 -187 -17 -5 -18 6 -18 135 l0 141 -200
0 -200 0 0 -146z"/>
<path d="M8 1809 c-10 -6 -7 -124 5 -166 3 -11 9 -43 12 -70 4 -26 14 -73 22
-103 8 -30 15 -59 17 -65 18 -80 78 -217 146 -341 74 -132 241 -321 375 -425
39 -29 73 -58 77 -64 4 -5 8 -6 8 -2 0 4 15 -3 33 -16 35 -26 237 -131 237
-123 0 3 24 -6 54 -19 29 -13 71 -27 92 -31 49 -10 42 -8 89 -22 22 -6 63 -14
90 -17 28 -4 66 -11 85 -16 45 -12 1276 -12 1298 0 9 5 46 12 82 16 36 4 85
13 110 20 25 7 85 25 134 40 320 96 627 343 818 660 83 137 151 325 183 505 3
19 9 49 12 65 3 17 7 64 10 105 l4 75 -1991 0 c-1096 0 -1996 -3 -2002 -6z"/>
</g>
</svg>
